<svg width="85" height="84" viewBox="0 0 85 84" fill="none" xmlns="http://www.w3.org/2000/svg">
<path d="M1.67578 27.4309L7.87778 24.8619L10.4468 31.0639L16.6488 33.6329L14.0798 39.8349L16.6488 46.0369L10.4468 48.6049L7.87778 54.8069L1.67578 52.2389M56.2228 83.2709L63.1068 76.3869L69.9908 83.2709H56.2228Z" stroke="white" stroke-width="0.583" stroke-miterlimit="10"/>
<path d="M1.67578 23.4624C10.7178 23.4624 18.0478 30.7924 18.0478 39.8344C18.0478 48.8764 10.7178 56.2064 1.67578 56.2064" stroke="#4A8B40" stroke-width="0.583" stroke-miterlimit="10"/>
<path d="M29.7874 39.3492C29.7874 39.7872 29.4324 40.1422 28.9944 40.1422C28.5564 40.1422 28.2014 39.7872 28.2014 39.3492C28.2014 38.9112 28.5564 38.5562 28.9944 38.5562C29.4324 38.5562 29.7874 38.9112 29.7874 39.3492Z" fill="#CC9D2F"/>
<path d="M28.4007 41.7645C28.4007 42.2025 28.0457 42.5575 27.6077 42.5575C27.1697 42.5575 26.8147 42.2025 26.8147 41.7645C26.8147 41.3265 27.1697 40.9715 27.6077 40.9715C28.0457 40.9715 28.4007 41.3265 28.4007 41.7645Z" fill="#CC9D2F"/>
<path d="M31.1741 41.7645C31.1741 42.2025 30.8191 42.5575 30.3811 42.5575C29.9431 42.5575 29.5881 42.2025 29.5881 41.7645C29.5881 41.3265 29.9431 40.9715 30.3811 40.9715C30.8191 40.9715 31.1741 41.3265 31.1741 41.7645Z" fill="#CC9D2F"/>
<path d="M28.4024 46.6894C28.4024 47.1274 28.0474 47.4824 27.6094 47.4824C27.1714 47.4824 26.8164 47.1274 26.8164 46.6894C26.8164 46.2514 27.1714 45.8964 27.6094 45.8964C28.0474 45.8964 28.4024 46.2514 28.4024 46.6894Z" fill="#CC9D2F"/>
<path d="M25.5484 46.6894C25.5484 47.1274 25.1934 47.4824 24.7554 47.4824C24.3174 47.4824 23.9614 47.1274 23.9614 46.6894C23.9614 46.2514 24.3174 45.8964 24.7554 45.8964C25.1934 45.8964 25.5484 46.2514 25.5484 46.6894Z" fill="#CC9D2F"/>
<path d="M34.1107 46.6894C34.1107 47.1274 33.7557 47.4824 33.3177 47.4824C32.8797 47.4824 32.5247 47.1274 32.5247 46.6894C32.5247 46.2514 32.8797 45.8964 33.3177 45.8964C33.7557 45.8964 34.1107 46.2514 34.1107 46.6894Z" fill="#CC9D2F"/>
<path d="M31.2564 46.6894C31.2564 47.1274 30.9014 47.4824 30.4634 47.4824C30.0254 47.4824 29.6704 47.1274 29.6704 46.6894C29.6704 46.2514 30.0254 45.8964 30.4634 45.8964C30.9014 45.8964 31.2564 46.2514 31.2564 46.6894Z" fill="#CC9D2F"/>
<path d="M27.086 44.1969C27.086 44.6349 26.731 44.9899 26.293 44.9899C25.855 44.9899 25.5 44.6349 25.5 44.1969C25.5 43.7589 25.855 43.4039 26.293 43.4039C26.731 43.4039 27.086 43.7589 27.086 44.1969Z" fill="#CC9D2F"/>
<path d="M29.8062 44.1969C29.8062 44.6349 29.4512 44.9899 29.0132 44.9899C28.5752 44.9899 28.2192 44.6349 28.2192 44.1969C28.2192 43.7589 28.5752 43.4039 29.0132 43.4039C29.4512 43.4039 29.8062 43.7589 29.8062 44.1969Z" fill="#CC9D2F"/>
<path d="M32.5262 44.1969C32.5262 44.6349 32.1712 44.9899 31.7332 44.9899C31.2952 44.9899 30.9402 44.6349 30.9402 44.1969C30.9402 43.7589 31.2952 43.4039 31.7332 43.4039C32.1712 43.4039 32.5262 43.7589 32.5262 44.1969Z" fill="#CC9D2F"/>
<path d="M56.7928 39.3492C56.7928 39.7872 56.4378 40.1422 55.9998 40.1422C55.5618 40.1422 55.2068 39.7872 55.2068 39.3492C55.2068 38.9112 55.5618 38.5562 55.9998 38.5562C56.4378 38.5562 56.7928 38.9112 56.7928 39.3492Z" fill="#CC9D2F"/>
<path d="M55.4061 41.7645C55.4061 42.2025 55.0511 42.5575 54.6131 42.5575C54.1751 42.5575 53.8201 42.2025 53.8201 41.7645C53.8201 41.3265 54.1751 40.9715 54.6131 40.9715C55.0511 40.9715 55.4061 41.3265 55.4061 41.7645Z" fill="#CC9D2F"/>
<path d="M58.1795 41.7645C58.1795 42.2025 57.8245 42.5575 57.3865 42.5575C56.9485 42.5575 56.5935 42.2025 56.5935 41.7645C56.5935 41.3265 56.9485 40.9715 57.3865 40.9715C57.8245 40.9715 58.1795 41.3265 58.1795 41.7645Z" fill="#CC9D2F"/>
<path d="M55.4078 46.6894C55.4078 47.1274 55.0528 47.4824 54.6148 47.4824C54.1768 47.4824 53.8208 47.1274 53.8208 46.6894C53.8208 46.2514 54.1768 45.8964 54.6148 45.8964C55.0528 45.8964 55.4078 46.2514 55.4078 46.6894Z" fill="#CC9D2F"/>
<path d="M52.5538 46.6894C52.5538 47.1274 52.1988 47.4824 51.7608 47.4824C51.3228 47.4824 50.9668 47.1274 50.9668 46.6894C50.9668 46.2514 51.3228 45.8964 51.7608 45.8964C52.1988 45.8964 52.5538 46.2514 52.5538 46.6894Z" fill="#CC9D2F"/>
<path d="M61.116 46.6894C61.116 47.1274 60.761 47.4824 60.323 47.4824C59.885 47.4824 59.53 47.1274 59.53 46.6894C59.53 46.2514 59.885 45.8964 60.323 45.8964C60.761 45.8964 61.116 46.2514 61.116 46.6894Z" fill="#CC9D2F"/>
<path d="M58.262 46.6894C58.262 47.1274 57.907 47.4824 57.469 47.4824C57.031 47.4824 56.675 47.1274 56.675 46.6894C56.675 46.2514 57.031 45.8964 57.469 45.8964C57.907 45.8964 58.262 46.2514 58.262 46.6894Z" fill="#CC9D2F"/>
<path d="M54.0914 44.1969C54.0914 44.6349 53.7364 44.9899 53.2984 44.9899C52.8604 44.9899 52.5054 44.6349 52.5054 44.1969C52.5054 43.7589 52.8604 43.4039 53.2984 43.4039C53.7364 43.4039 54.0914 43.7589 54.0914 44.1969Z" fill="#CC9D2F"/>
<path d="M56.8116 44.1969C56.8116 44.6349 56.4566 44.9899 56.0186 44.9899C55.5806 44.9899 55.2246 44.6349 55.2246 44.1969C55.2246 43.7589 55.5806 43.4039 56.0186 43.4039C56.4566 43.4039 56.8116 43.7589 56.8116 44.1969Z" fill="#CC9D2F"/>
<path d="M59.5318 44.1969C59.5318 44.6349 59.1768 44.9899 58.7388 44.9899C58.3008 44.9899 57.9448 44.6349 57.9448 44.1969C57.9448 43.7589 58.3008 43.4039 58.7388 43.4039C59.1768 43.4039 59.5318 43.7589 59.5318 44.1969Z" fill="#CC9D2F"/>
<path d="M45.1993 10.3704C45.1993 15.3544 42.5673 19.3944 42.5673 19.3944C42.5673 19.3944 39.9353 15.3544 39.9353 10.3704C39.9353 5.38641 42.5673 1.34641 42.5673 1.34641C42.5673 1.34641 45.1993 5.38641 45.1993 10.3704ZM51.6983 3.28941C56.0143 5.78141 58.1973 10.0814 58.1973 10.0814C58.1973 10.0814 53.3823 10.3404 49.0663 7.84841C44.7503 5.35641 42.5673 1.05741 42.5673 1.05741C42.5673 1.05741 47.3823 0.79741 51.6983 3.28941ZM33.4363 3.28941C37.7523 0.79741 42.5673 1.05741 42.5673 1.05741C42.5673 1.05741 40.3843 5.35641 36.0683 7.84841C31.7523 10.3404 26.9373 10.0814 26.9373 10.0814C26.9373 10.0814 29.1203 5.78141 33.4363 3.28941Z" stroke="white" stroke-width="0.583" stroke-miterlimit="10"/>
<path d="M71.8285 1.05699L42.5675 30.318L13.2495 0.999994" stroke="#4A8B40" stroke-width="0.583" stroke-miterlimit="10"/>
<path d="M42.6624 83.2709L49.5464 76.3869L56.4304 83.2709H42.6624ZM15.1264 83.2709L22.0104 76.3869L28.8944 83.2709H15.1264ZM28.8944 83.2709L35.7784 76.3869L42.6624 83.2709H28.8944ZM69.9904 83.2709L76.8744 76.3869L83.7584 83.2709H83.6424H1.4904H1.3584L8.2424 76.3869L15.1264 83.2709H69.9904ZM72.0854 39.1609L64.9214 31.9959L72.0854 24.8329V53.4879L64.9214 46.3239L72.0854 39.1609ZM1.6754 68.6849L12.4884 65.3939L1.6754 62.1029V68.6849ZM1.6754 75.2659L12.4884 71.9759L1.6754 68.6849V75.2659Z" stroke="white" stroke-width="0.583" stroke-miterlimit="10"/>
<path d="M18.9053 1.00075V3.82875M49.0173 12.3548L50.1023 16.4038L53.0663 13.4398L49.0173 12.3548ZM36.2883 12.3548L32.2403 13.4398L35.2043 16.4038L36.2883 12.3548ZM30.2793 1.03775L26.6493 1.03075V3.13375L30.2793 1.03775ZM55.0893 1.03775L58.7193 3.13375V1.03075L55.0893 1.03775ZM42.5673 21.2628V26.7708V21.2628ZM40.1853 21.2628V24.0908V21.2628ZM44.9483 21.2628V24.0908V21.2628ZM64.3163 1.00075V5.00475V1.00075ZM61.9353 1.00075V7.35775V1.00075ZM66.6983 1.00075V3.82875V1.00075ZM21.2873 1.00075V5.00475V1.00075ZM23.6683 1.00075V7.35775V1.00075Z" stroke="#CC9D2F" stroke-width="0.583" stroke-miterlimit="10"/>
<path d="M83.643 72.9246C80.899 72.9246 78.667 70.6916 78.667 67.9476C78.667 65.2036 80.899 62.9716 83.643 62.9716V72.9246Z" stroke="#4A8B40" stroke-width="0.583" stroke-miterlimit="10"/>
<path d="M83.643 57.6808C80.899 57.6808 78.667 55.4478 78.667 52.7038C78.667 49.9598 80.899 47.7278 83.643 47.7278V57.6808Z" stroke="#CC9D2F" stroke-width="0.583" stroke-miterlimit="10"/>
<path d="M83.643 42.4557C80.899 42.4557 78.667 40.2227 78.667 37.4787C78.667 34.7347 80.899 32.5027 83.643 32.5027V42.4557Z" stroke="#4A8B40" stroke-width="0.583" stroke-miterlimit="10"/>
<path d="M83.643 27.2305C80.899 27.2305 78.667 24.9975 78.667 22.2535C78.667 19.5095 80.899 17.2775 83.643 17.2775V27.2305Z" stroke="#CC9D2F" stroke-width="0.583" stroke-miterlimit="10"/>
<path d="M48.0889 67.623L42.5669 73.145L37.0449 67.623M37.1249 55.203L42.5669 49.762L48.0889 55.284" stroke="#4A8B40" stroke-width="0.583" stroke-miterlimit="10"/>
<path d="M1.67523 39.8348L13.2472 28.2628M69.9902 78.9558L68.1442 77.1098L69.9902 75.2638L71.8362 77.1098L69.9902 78.9558ZM15.1262 78.9558L13.2802 77.1098L15.1262 75.2638L16.9722 77.1098L15.1262 78.9558ZM28.8942 78.9558L27.0482 77.1098L28.8942 75.2638L30.7402 77.1098L28.8942 78.9558ZM56.2222 78.9558L54.3762 77.1098L56.2222 75.2638L58.0682 77.1098L56.2222 78.9558ZM1.67523 39.8348H18.0472H1.67523ZM1.61523 39.7748L13.2472 51.4068L1.61523 39.7748Z" stroke="#CC9D2F" stroke-width="0.583" stroke-miterlimit="10"/>
<path d="M12.2141 35.7968C12.2141 36.3388 11.7741 36.7788 11.2321 36.7788C10.6901 36.7788 10.2501 36.3388 10.2501 35.7968C10.2501 35.2548 10.6901 34.8148 11.2321 34.8148C11.7741 34.8148 12.2141 35.2548 12.2141 35.7968ZM6.64906 29.9058C6.64906 30.4478 6.20906 30.8878 5.66706 30.8878C5.12506 30.8878 4.68506 30.4478 4.68506 29.9058C4.68506 29.3638 5.12506 28.9238 5.66706 28.9238C6.20906 28.9238 6.64906 29.3638 6.64906 29.9058ZM6.64906 49.2618C6.64906 49.8038 6.20906 50.2438 5.66706 50.2438C5.12506 50.2438 4.68506 49.8038 4.68506 49.2618C4.68506 48.7198 5.12506 48.2798 5.66706 48.2798C6.20906 48.2798 6.64906 48.7198 6.64906 49.2618ZM12.2141 43.6518C12.2141 44.1938 11.7741 44.6328 11.2321 44.6328C10.6901 44.6328 10.2501 44.1938 10.2501 43.6518C10.2501 43.1088 10.6901 42.6698 11.2321 42.6698C11.7741 42.6698 12.2141 43.1088 12.2141 43.6518ZM46.3551 61.4528C46.3551 67.9928 51.6571 73.2938 58.1961 73.2938C64.7361 73.2938 70.0371 67.9928 70.0371 61.4528C70.0371 54.9138 64.7361 49.6128 58.1961 49.6128C51.6571 49.6128 46.3551 54.9138 46.3551 61.4528ZM15.0961 61.4528C15.0961 67.9928 20.3971 73.2938 26.9371 73.2938C33.4761 73.2938 38.7771 67.9928 38.7771 61.4528C38.7771 54.9138 33.4761 49.6128 26.9371 49.6128C20.3971 49.6128 15.0961 54.9138 15.0961 61.4528Z" stroke="white" stroke-width="0.583" stroke-miterlimit="10"/>
<path d="M47.7529 61.4532C47.7529 67.2212 52.4289 71.8962 58.1959 71.8962C63.9639 71.8962 68.6399 67.2212 68.6399 61.4532C68.6399 55.6852 63.9639 51.0092 58.1959 51.0092C52.4289 51.0092 47.7529 55.6852 47.7529 61.4532Z" stroke="#CC9D2F" stroke-width="0.583" stroke-miterlimit="10"/>
<path d="M58.1961 68.2798C54.4321 68.2798 51.3691 65.2178 51.3691 61.4528C51.3691 57.6888 54.4321 54.6268 58.1961 54.6268C61.9601 54.6268 65.0231 57.6888 65.0231 61.4528C65.0231 65.2178 61.9601 68.2798 58.1961 68.2798Z" stroke="white" stroke-width="0.583" stroke-miterlimit="10"/>
<path d="M16.4932 61.4532C16.4932 67.2212 21.1692 71.8962 26.9362 71.8962C32.7042 71.8962 37.3802 67.2212 37.3802 61.4532C37.3802 55.6852 32.7042 51.0092 26.9362 51.0092C21.1692 51.0092 16.4932 55.6852 16.4932 61.4532Z" stroke="#CC9D2F" stroke-width="0.583" stroke-miterlimit="10"/>
<path d="M26.9366 68.2798C23.1726 68.2798 20.1096 65.2178 20.1096 61.4528C20.1096 57.6888 23.1726 54.6268 26.9366 54.6268C30.7006 54.6268 33.7636 57.6888 33.7636 61.4528C33.7636 65.2178 30.7006 68.2798 26.9366 68.2798Z" stroke="white" stroke-width="0.583" stroke-miterlimit="10"/>
<path d="M1.61523 1.0004L42.5662 41.9514L83.5182 1.0004V7.0054L42.5662 47.9574L1.61523 7.0054V1.0004Z" stroke="#4A8B40" stroke-width="0.583" stroke-miterlimit="10"/>
<path d="M45.8394 42.1635C45.8394 42.4915 45.5734 42.7585 45.2444 42.7585C44.9164 42.7585 44.6504 42.4915 44.6504 42.1635C44.6504 41.8355 44.9164 41.5685 45.2444 41.5685C45.5734 41.5685 45.8394 41.8355 45.8394 42.1635Z" fill="white"/>
<path d="M45.8394 42.1635C45.8394 42.4915 45.5734 42.7585 45.2444 42.7585C44.9164 42.7585 44.6504 42.4915 44.6504 42.1635C44.6504 41.8355 44.9164 41.5685 45.2444 41.5685C45.5734 41.5685 45.8394 41.8355 45.8394 42.1635Z" stroke="white" stroke-width="0.204" stroke-miterlimit="10"/>
<path d="M48.5464 39.4586C48.5464 39.7866 48.2804 40.0536 47.9514 40.0536C47.6234 40.0536 47.3574 39.7866 47.3574 39.4586C47.3574 39.1306 47.6234 38.8636 47.9514 38.8636C48.2804 38.8636 48.5464 39.1306 48.5464 39.4586Z" fill="white"/>
<path d="M48.5464 39.4586C48.5464 39.7866 48.2804 40.0536 47.9514 40.0536C47.6234 40.0536 47.3574 39.7866 47.3574 39.4586C47.3574 39.1306 47.6234 38.8636 47.9514 38.8636C48.2804 38.8636 48.5464 39.1306 48.5464 39.4586Z" stroke="white" stroke-width="0.204" stroke-miterlimit="10"/>
<path d="M51.2535 36.7536C51.2535 37.0816 50.9875 37.3486 50.6585 37.3486C50.3305 37.3486 50.0645 37.0816 50.0645 36.7536C50.0645 36.4256 50.3305 36.1586 50.6585 36.1586C50.9875 36.1586 51.2535 36.4256 51.2535 36.7536Z" fill="white"/>
<path d="M51.2535 36.7536C51.2535 37.0816 50.9875 37.3486 50.6585 37.3486C50.3305 37.3486 50.0645 37.0816 50.0645 36.7536C50.0645 36.4256 50.3305 36.1586 50.6585 36.1586C50.9875 36.1586 51.2535 36.4256 51.2535 36.7536Z" stroke="white" stroke-width="0.204" stroke-miterlimit="10"/>
<path d="M53.9595 34.0486C53.9595 34.3766 53.6935 34.6436 53.3645 34.6436C53.0365 34.6436 52.7705 34.3766 52.7705 34.0486C52.7705 33.7206 53.0365 33.4536 53.3645 33.4536C53.6935 33.4536 53.9595 33.7206 53.9595 34.0486Z" fill="white"/>
<path d="M53.9595 34.0486C53.9595 34.3766 53.6935 34.6436 53.3645 34.6436C53.0365 34.6436 52.7705 34.3766 52.7705 34.0486C52.7705 33.7206 53.0365 33.4536 53.3645 33.4536C53.6935 33.4536 53.9595 33.7206 53.9595 34.0486Z" stroke="white" stroke-width="0.204" stroke-miterlimit="10"/>
<path d="M56.6665 31.3436C56.6665 31.6716 56.4005 31.9386 56.0715 31.9386C55.7435 31.9386 55.4775 31.6716 55.4775 31.3436C55.4775 31.0156 55.7435 30.7486 56.0715 30.7486C56.4005 30.7486 56.6665 31.0156 56.6665 31.3436Z" fill="white"/>
<path d="M56.6665 31.3436C56.6665 31.6716 56.4005 31.9386 56.0715 31.9386C55.7435 31.9386 55.4775 31.6716 55.4775 31.3436C55.4775 31.0156 55.7435 30.7486 56.0715 30.7486C56.4005 30.7486 56.6665 31.0156 56.6665 31.3436Z" stroke="white" stroke-width="0.204" stroke-miterlimit="10"/>
<path d="M59.3726 28.6386C59.3726 28.9666 59.1066 29.2336 58.7776 29.2336C58.4496 29.2336 58.1836 28.9666 58.1836 28.6386C58.1836 28.3106 58.4496 28.0436 58.7776 28.0436C59.1066 28.0436 59.3726 28.3106 59.3726 28.6386Z" fill="white"/>
<path d="M59.3726 28.6386C59.3726 28.9666 59.1066 29.2336 58.7776 29.2336C58.4496 29.2336 58.1836 28.9666 58.1836 28.6386C58.1836 28.3106 58.4496 28.0436 58.7776 28.0436C59.1066 28.0436 59.3726 28.3106 59.3726 28.6386Z" stroke="white" stroke-width="0.204" stroke-miterlimit="10"/>
<path d="M62.0796 25.9334C62.0796 26.2614 61.8136 26.5284 61.4846 26.5284C61.1566 26.5284 60.8906 26.2614 60.8906 25.9334C60.8906 25.6054 61.1566 25.3384 61.4846 25.3384C61.8136 25.3384 62.0796 25.6054 62.0796 25.9334Z" fill="white"/>
<path d="M62.0796 25.9334C62.0796 26.2614 61.8136 26.5284 61.4846 26.5284C61.1566 26.5284 60.8906 26.2614 60.8906 25.9334C60.8906 25.6054 61.1566 25.3384 61.4846 25.3384C61.8136 25.3384 62.0796 25.6054 62.0796 25.9334Z" stroke="white" stroke-width="0.204" stroke-miterlimit="10"/>
<path d="M64.7857 23.2285C64.7857 23.5565 64.5197 23.8235 64.1907 23.8235C63.8627 23.8235 63.5967 23.5565 63.5967 23.2285C63.5967 22.9005 63.8627 22.6335 64.1907 22.6335C64.5197 22.6335 64.7857 22.9005 64.7857 23.2285Z" fill="white"/>
<path d="M64.7857 23.2285C64.7857 23.5565 64.5197 23.8235 64.1907 23.8235C63.8627 23.8235 63.5967 23.5565 63.5967 23.2285C63.5967 22.9005 63.8627 22.6335 64.1907 22.6335C64.5197 22.6335 64.7857 22.9005 64.7857 23.2285Z" stroke="white" stroke-width="0.204" stroke-miterlimit="10"/>
<path d="M67.4927 20.5235C67.4927 20.8515 67.2267 21.1185 66.8977 21.1185C66.5697 21.1185 66.3037 20.8515 66.3037 20.5235C66.3037 20.1955 66.5697 19.9285 66.8977 19.9285C67.2267 19.9285 67.4927 20.1955 67.4927 20.5235Z" fill="white"/>
<path d="M67.4927 20.5235C67.4927 20.8515 67.2267 21.1185 66.8977 21.1185C66.5697 21.1185 66.3037 20.8515 66.3037 20.5235C66.3037 20.1955 66.5697 19.9285 66.8977 19.9285C67.2267 19.9285 67.4927 20.1955 67.4927 20.5235Z" stroke="white" stroke-width="0.204" stroke-miterlimit="10"/>
<path d="M70.1997 17.8185C70.1997 18.1465 69.9337 18.4135 69.6047 18.4135C69.2767 18.4135 69.0107 18.1465 69.0107 17.8185C69.0107 17.4905 69.2767 17.2235 69.6047 17.2235C69.9337 17.2235 70.1997 17.4905 70.1997 17.8185Z" fill="white"/>
<path d="M70.1997 17.8185C70.1997 18.1465 69.9337 18.4135 69.6047 18.4135C69.2767 18.4135 69.0107 18.1465 69.0107 17.8185C69.0107 17.4905 69.2767 17.2235 69.6047 17.2235C69.9337 17.2235 70.1997 17.4905 70.1997 17.8185Z" stroke="white" stroke-width="0.204" stroke-miterlimit="10"/>
<path d="M72.9058 15.1133C72.9058 15.4413 72.6398 15.7083 72.3108 15.7083C71.9828 15.7083 71.7168 15.4413 71.7168 15.1133C71.7168 14.7853 71.9828 14.5183 72.3108 14.5183C72.6398 14.5183 72.9058 14.7853 72.9058 15.1133Z" fill="white"/>
<path d="M72.9058 15.1133C72.9058 15.4413 72.6398 15.7083 72.3108 15.7083C71.9828 15.7083 71.7168 15.4413 71.7168 15.1133C71.7168 14.7853 71.9828 14.5183 72.3108 14.5183C72.6398 14.5183 72.9058 14.7853 72.9058 15.1133Z" stroke="white" stroke-width="0.204" stroke-miterlimit="10"/>
<path d="M75.6128 12.4084C75.6128 12.7364 75.3468 13.0034 75.0178 13.0034C74.6898 13.0034 74.4238 12.7364 74.4238 12.4084C74.4238 12.0804 74.6898 11.8134 75.0178 11.8134C75.3468 11.8134 75.6128 12.0804 75.6128 12.4084Z" fill="white"/>
<path d="M75.6128 12.4084C75.6128 12.7364 75.3468 13.0034 75.0178 13.0034C74.6898 13.0034 74.4238 12.7364 74.4238 12.4084C74.4238 12.0804 74.6898 11.8134 75.0178 11.8134C75.3468 11.8134 75.6128 12.0804 75.6128 12.4084Z" stroke="white" stroke-width="0.204" stroke-miterlimit="10"/>
<path d="M78.3189 9.70334C78.3189 10.0313 78.0529 10.2983 77.7239 10.2983C77.3959 10.2983 77.1299 10.0313 77.1299 9.70334C77.1299 9.37534 77.3959 9.10834 77.7239 9.10834C78.0529 9.10834 78.3189 9.37534 78.3189 9.70334Z" fill="white"/>
<path d="M78.3189 9.70334C78.3189 10.0313 78.0529 10.2983 77.7239 10.2983C77.3959 10.2983 77.1299 10.0313 77.1299 9.70334C77.1299 9.37534 77.3959 9.10834 77.7239 9.10834C78.0529 9.10834 78.3189 9.37534 78.3189 9.70334Z" stroke="white" stroke-width="0.204" stroke-miterlimit="10"/>
<path d="M81.0259 6.99826C81.0259 7.32626 80.7599 7.59326 80.4309 7.59326C80.1029 7.59326 79.8369 7.32626 79.8369 6.99826C79.8369 6.67026 80.1029 6.40326 80.4309 6.40326C80.7599 6.40326 81.0259 6.67026 81.0259 6.99826Z" fill="white"/>
<path d="M81.0259 6.99826C81.0259 7.32626 80.7599 7.59326 80.4309 7.59326C80.1029 7.59326 79.8369 7.32626 79.8369 6.99826C79.8369 6.67026 80.1029 6.40326 80.4309 6.40326C80.7599 6.40326 81.0259 6.67026 81.0259 6.99826Z" stroke="white" stroke-width="0.204" stroke-miterlimit="10"/>
<path d="M43.1333 44.8686C43.1333 45.1966 42.8673 45.4636 42.5383 45.4636C42.2103 45.4636 41.9443 45.1966 41.9443 44.8686C41.9443 44.5406 42.2103 44.2736 42.5383 44.2736C42.8673 44.2736 43.1333 44.5406 43.1333 44.8686Z" fill="white"/>
<path d="M43.1333 44.8686C43.1333 45.1966 42.8673 45.4636 42.5383 45.4636C42.2103 45.4636 41.9443 45.1966 41.9443 44.8686C41.9443 44.5406 42.2103 44.2736 42.5383 44.2736C42.8673 44.2736 43.1333 44.5406 43.1333 44.8686Z" stroke="white" stroke-width="0.204" stroke-miterlimit="10"/>
<path d="M39.2373 42.1635C39.2373 42.4915 39.5033 42.7585 39.8323 42.7585C40.1603 42.7585 40.4263 42.4915 40.4263 42.1635C40.4263 41.8355 40.1603 41.5685 39.8323 41.5685C39.5033 41.5685 39.2373 41.8355 39.2373 42.1635Z" fill="white"/>
<path d="M39.2373 42.1635C39.2373 42.4915 39.5033 42.7585 39.8323 42.7585C40.1603 42.7585 40.4263 42.4915 40.4263 42.1635C40.4263 41.8355 40.1603 41.5685 39.8323 41.5685C39.5033 41.5685 39.2373 41.8355 39.2373 42.1635Z" stroke="white" stroke-width="0.204" stroke-miterlimit="10"/>
<path d="M36.5303 39.4586C36.5303 39.7866 36.7963 40.0536 37.1253 40.0536C37.4533 40.0536 37.7193 39.7866 37.7193 39.4586C37.7193 39.1306 37.4533 38.8636 37.1253 38.8636C36.7963 38.8636 36.5303 39.1306 36.5303 39.4586Z" fill="white"/>
<path d="M36.5303 39.4586C36.5303 39.7866 36.7963 40.0536 37.1253 40.0536C37.4533 40.0536 37.7193 39.7866 37.7193 39.4586C37.7193 39.1306 37.4533 38.8636 37.1253 38.8636C36.7963 38.8636 36.5303 39.1306 36.5303 39.4586Z" stroke="white" stroke-width="0.204" stroke-miterlimit="10"/>
<path d="M33.8242 36.7536C33.8242 37.0816 34.0902 37.3486 34.4192 37.3486C34.7472 37.3486 35.0132 37.0816 35.0132 36.7536C35.0132 36.4256 34.7472 36.1586 34.4192 36.1586C34.0902 36.1586 33.8242 36.4256 33.8242 36.7536Z" fill="white"/>
<path d="M33.8242 36.7536C33.8242 37.0816 34.0902 37.3486 34.4192 37.3486C34.7472 37.3486 35.0132 37.0816 35.0132 36.7536C35.0132 36.4256 34.7472 36.1586 34.4192 36.1586C34.0902 36.1586 33.8242 36.4256 33.8242 36.7536Z" stroke="white" stroke-width="0.204" stroke-miterlimit="10"/>
<path d="M31.1172 34.0486C31.1172 34.3766 31.3832 34.6436 31.7122 34.6436C32.0402 34.6436 32.3062 34.3766 32.3062 34.0486C32.3062 33.7206 32.0402 33.4536 31.7122 33.4536C31.3832 33.4536 31.1172 33.7206 31.1172 34.0486Z" fill="white"/>
<path d="M31.1172 34.0486C31.1172 34.3766 31.3832 34.6436 31.7122 34.6436C32.0402 34.6436 32.3062 34.3766 32.3062 34.0486C32.3062 33.7206 32.0402 33.4536 31.7122 33.4536C31.3832 33.4536 31.1172 33.7206 31.1172 34.0486Z" stroke="white" stroke-width="0.204" stroke-miterlimit="10"/>
<path d="M28.4102 31.3436C28.4102 31.6716 28.6762 31.9386 29.0052 31.9386C29.3332 31.9386 29.5992 31.6716 29.5992 31.3436C29.5992 31.0156 29.3332 30.7486 29.0052 30.7486C28.6762 30.7486 28.4102 31.0156 28.4102 31.3436Z" fill="white"/>
<path d="M28.4102 31.3436C28.4102 31.6716 28.6762 31.9386 29.0052 31.9386C29.3332 31.9386 29.5992 31.6716 29.5992 31.3436C29.5992 31.0156 29.3332 30.7486 29.0052 30.7486C28.6762 30.7486 28.4102 31.0156 28.4102 31.3436Z" stroke="white" stroke-width="0.204" stroke-miterlimit="10"/>
<path d="M25.7041 28.6386C25.7041 28.9666 25.9701 29.2336 26.2991 29.2336C26.6271 29.2336 26.8931 28.9666 26.8931 28.6386C26.8931 28.3106 26.6271 28.0436 26.2991 28.0436C25.9701 28.0436 25.7041 28.3106 25.7041 28.6386Z" fill="white"/>
<path d="M25.7041 28.6386C25.7041 28.9666 25.9701 29.2336 26.2991 29.2336C26.6271 29.2336 26.8931 28.9666 26.8931 28.6386C26.8931 28.3106 26.6271 28.0436 26.2991 28.0436C25.9701 28.0436 25.7041 28.3106 25.7041 28.6386Z" stroke="white" stroke-width="0.204" stroke-miterlimit="10"/>
<path d="M22.9971 25.9334C22.9971 26.2614 23.2631 26.5284 23.5921 26.5284C23.9201 26.5284 24.1861 26.2614 24.1861 25.9334C24.1861 25.6054 23.9201 25.3384 23.5921 25.3384C23.2631 25.3384 22.9971 25.6054 22.9971 25.9334Z" fill="white"/>
<path d="M22.9971 25.9334C22.9971 26.2614 23.2631 26.5284 23.5921 26.5284C23.9201 26.5284 24.1861 26.2614 24.1861 25.9334C24.1861 25.6054 23.9201 25.3384 23.5921 25.3384C23.2631 25.3384 22.9971 25.6054 22.9971 25.9334Z" stroke="white" stroke-width="0.204" stroke-miterlimit="10"/>
<path d="M20.291 23.2285C20.291 23.5565 20.557 23.8235 20.886 23.8235C21.214 23.8235 21.48 23.5565 21.48 23.2285C21.48 22.9005 21.214 22.6335 20.886 22.6335C20.557 22.6335 20.291 22.9005 20.291 23.2285Z" fill="white"/>
<path d="M20.291 23.2285C20.291 23.5565 20.557 23.8235 20.886 23.8235C21.214 23.8235 21.48 23.5565 21.48 23.2285C21.48 22.9005 21.214 22.6335 20.886 22.6335C20.557 22.6335 20.291 22.9005 20.291 23.2285Z" stroke="white" stroke-width="0.204" stroke-miterlimit="10"/>
<path d="M17.584 20.5235C17.584 20.8515 17.85 21.1185 18.179 21.1185C18.507 21.1185 18.773 20.8515 18.773 20.5235C18.773 20.1955 18.507 19.9285 18.179 19.9285C17.85 19.9285 17.584 20.1955 17.584 20.5235Z" fill="white"/>
<path d="M17.584 20.5235C17.584 20.8515 17.85 21.1185 18.179 21.1185C18.507 21.1185 18.773 20.8515 18.773 20.5235C18.773 20.1955 18.507 19.9285 18.179 19.9285C17.85 19.9285 17.584 20.1955 17.584 20.5235Z" stroke="white" stroke-width="0.204" stroke-miterlimit="10"/>
<path d="M14.8779 17.8185C14.8779 18.1465 15.1439 18.4135 15.4729 18.4135C15.8009 18.4135 16.0669 18.1465 16.0669 17.8185C16.0669 17.4905 15.8009 17.2235 15.4729 17.2235C15.1439 17.2235 14.8779 17.4905 14.8779 17.8185Z" fill="white"/>
<path d="M14.8779 17.8185C14.8779 18.1465 15.1439 18.4135 15.4729 18.4135C15.8009 18.4135 16.0669 18.1465 16.0669 17.8185C16.0669 17.4905 15.8009 17.2235 15.4729 17.2235C15.1439 17.2235 14.8779 17.4905 14.8779 17.8185Z" stroke="white" stroke-width="0.204" stroke-miterlimit="10"/>
<path d="M12.1709 15.1133C12.1709 15.4413 12.4369 15.7083 12.7659 15.7083C13.0939 15.7083 13.3599 15.4413 13.3599 15.1133C13.3599 14.7853 13.0939 14.5183 12.7659 14.5183C12.4369 14.5183 12.1709 14.7853 12.1709 15.1133Z" fill="white"/>
<path d="M12.1709 15.1133C12.1709 15.4413 12.4369 15.7083 12.7659 15.7083C13.0939 15.7083 13.3599 15.4413 13.3599 15.1133C13.3599 14.7853 13.0939 14.5183 12.7659 14.5183C12.4369 14.5183 12.1709 14.7853 12.1709 15.1133Z" stroke="white" stroke-width="0.204" stroke-miterlimit="10"/>
<path d="M9.46387 12.4084C9.46387 12.7364 9.72987 13.0034 10.0589 13.0034C10.3869 13.0034 10.6529 12.7364 10.6529 12.4084C10.6529 12.0804 10.3869 11.8134 10.0589 11.8134C9.72987 11.8134 9.46387 12.0804 9.46387 12.4084Z" fill="white"/>
<path d="M9.46387 12.4084C9.46387 12.7364 9.72987 13.0034 10.0589 13.0034C10.3869 13.0034 10.6529 12.7364 10.6529 12.4084C10.6529 12.0804 10.3869 11.8134 10.0589 11.8134C9.72987 11.8134 9.46387 12.0804 9.46387 12.4084Z" stroke="white" stroke-width="0.204" stroke-miterlimit="10"/>
<path d="M6.75781 9.70334C6.75781 10.0313 7.02381 10.2983 7.35281 10.2983C7.68081 10.2983 7.94681 10.0313 7.94681 9.70334C7.94681 9.37534 7.68081 9.10834 7.35281 9.10834C7.02381 9.10834 6.75781 9.37534 6.75781 9.70334Z" fill="white"/>
<path d="M6.75781 9.70334C6.75781 10.0313 7.02381 10.2983 7.35281 10.2983C7.68081 10.2983 7.94681 10.0313 7.94681 9.70334C7.94681 9.37534 7.68081 9.10834 7.35281 9.10834C7.02381 9.10834 6.75781 9.37534 6.75781 9.70334Z" stroke="white" stroke-width="0.204" stroke-miterlimit="10"/>
<path d="M4.05078 6.99826C4.05078 7.32626 4.31678 7.59326 4.64578 7.59326C4.97378 7.59326 5.23978 7.32626 5.23978 6.99826C5.23978 6.67026 4.97378 6.40326 4.64578 6.40326C4.31678 6.40326 4.05078 6.67026 4.05078 6.99826Z" fill="white"/>
<path d="M4.05078 6.99826C4.05078 7.32626 4.31678 7.59326 4.64578 7.59326C4.97378 7.59326 5.23978 7.32626 5.23978 6.99826C5.23978 6.67026 4.97378 6.40326 4.64578 6.40326C4.31678 6.40326 4.05078 6.67026 4.05078 6.99826Z" stroke="white" stroke-width="0.204" stroke-miterlimit="10"/>
<path d="M83.6428 45.0922V60.3172C79.4378 60.3172 76.0298 56.9092 76.0298 52.7042C76.0298 48.5002 79.4378 45.0922 83.6428 45.0922ZM83.6428 45.0922C79.4378 45.0922 76.0298 41.6832 76.0298 37.4792C76.0298 33.2752 79.4378 29.8662 83.6428 29.8662M83.6428 45.0922V29.8662M83.6428 29.8662C79.4378 29.8662 76.0298 26.4582 76.0298 22.2542C76.0298 18.0502 79.4378 14.6412 83.6428 14.6412V29.8662ZM75.1048 1.03116L42.5668 33.5302L10.0328 1.03116H75.1048ZM76.0298 67.9482C76.0298 72.1522 79.4378 75.5612 83.6428 75.5612V60.3362C79.4378 60.3362 76.0298 63.7442 76.0298 67.9482ZM1.6748 20.2232V59.4462C12.5058 59.4462 21.2868 50.6662 21.2868 39.8342C21.2868 29.0032 12.5058 20.2232 1.6748 20.2232Z" stroke="white" stroke-width="0.583" stroke-miterlimit="10"/>
</svg>
