<svg width="92" height="109" viewBox="0 0 92 109" fill="none" xmlns="http://www.w3.org/2000/svg">
<path d="M45.92 54.8043C45.92 54.8043 52.0958 66.9462 64.3043 73.9831C76.5128 81.0219 90.1317 80.2901 90.1317 80.2901C90.1317 80.2901 83.9579 68.1461 71.7494 61.1092C59.5409 54.0724 45.92 54.8043 45.92 54.8043ZM45.92 54.8043C45.92 54.8043 32.3011 54.0724 20.0926 61.1092C7.88411 68.1461 1.71033 80.2901 1.71033 80.2901C1.71033 80.2901 15.3292 81.0219 27.5377 73.9831C39.7462 66.9462 45.92 54.8043 45.92 54.8043ZM45.92 54.3818C45.92 54.3818 39.7462 42.2398 27.5377 35.203C15.3292 28.1641 1.71033 28.898 1.71033 28.898C1.71033 28.898 7.88411 41.0399 20.0926 48.0788C32.3011 55.1156 45.92 54.3818 45.92 54.3818ZM45.92 54.3818C45.92 54.3818 59.5409 55.1156 71.7494 48.0788C83.9579 41.0399 90.1317 28.898 90.1317 28.898C90.1317 28.898 76.5128 28.1641 64.3043 35.203C52.0958 42.2398 45.92 54.3818 45.92 54.3818ZM53.3651 81.1072C53.3651 95.1829 45.92 106.593 45.92 106.593C45.92 106.593 38.4749 95.1829 38.4749 81.1072C38.4749 67.0315 45.92 55.6194 45.92 55.6194C45.92 55.6194 53.3651 67.0315 53.3651 81.1072ZM38.4749 28.0788C38.4749 14.0051 45.92 2.59302 45.92 2.59302C45.92 2.59302 53.3651 14.0051 53.3651 28.0788C53.3651 42.1546 45.92 53.5647 45.92 53.5647C45.92 53.5647 38.4749 42.1546 38.4749 28.0788Z" stroke="white" stroke-width="2" stroke-miterlimit="10" style="mix-blend-mode:color-dodge"/>
</svg>
